<svg width="28" height="28" viewBox="0 0 28 28" fill="none" xmlns="http://www.w3.org/2000/svg">
<path d="M10.06 18.701C10.2572 18.8402 10.483 18.9339 10.7208 18.9752C10.9587 19.0164 11.2028 19.0043 11.4354 18.9395C11.668 18.8748 11.8833 18.7592 12.0657 18.601C12.2481 18.4428 12.393 18.2461 12.49 18.025L13.26 15.685C13.4475 15.1221 13.7634 14.6106 14.1827 14.1909C14.602 13.7712 15.1133 13.4549 15.676 13.267L17.914 12.54C18.2318 12.4287 18.5067 12.2206 18.7 11.945C18.8489 11.7356 18.9459 11.4939 18.983 11.2397C19.02 10.9855 18.9961 10.7261 18.9132 10.483C18.8302 10.2398 18.6907 10.0199 18.506 9.84132C18.3213 9.66275 18.0968 9.53067 17.851 9.45596L15.636 8.73596C15.0729 8.54916 14.561 8.23375 14.1409 7.81474C13.7209 7.39573 13.4042 6.88463 13.216 6.32196L12.489 4.08496C12.3771 3.76808 12.1695 3.49377 11.895 3.29996C11.6187 3.10946 11.2911 3.00745 10.9555 3.00745C10.6199 3.00745 10.2923 3.10946 10.016 3.29996C9.73698 3.49703 9.52706 3.77692 9.416 4.09996L8.68 6.36496C8.49245 6.91313 8.18257 7.41141 7.77385 7.82203C7.36513 8.23266 6.86829 8.54486 6.321 8.73496L4.081 9.46096C3.76226 9.57363 3.48657 9.78286 3.29227 10.0595C3.09798 10.3362 2.99475 10.6665 2.99695 11.0046C2.99915 11.3426 3.10667 11.6716 3.30455 11.9457C3.50243 12.2198 3.78082 12.4254 4.101 12.534L6.317 13.254C7.03556 13.4949 7.6672 13.9422 8.133 14.54C8.399 14.883 8.604 15.268 8.739 15.68L9.467 17.914C9.579 18.232 9.787 18.507 10.062 18.701H10.06ZM19.804 24.781C20.0075 24.9248 20.2508 25.0017 20.5 25.001C20.7475 25.0017 20.9892 24.9259 21.192 24.784C21.4003 24.6361 21.5564 24.426 21.638 24.184L22.01 23.041C22.0886 22.8036 22.2215 22.5879 22.398 22.4108C22.5745 22.2338 22.7899 22.1003 23.027 22.021L24.193 21.643C24.4283 21.5594 24.632 21.4053 24.7765 21.2016C24.9209 20.9979 24.999 20.7546 25 20.505C25 20.2489 24.9181 19.9995 24.7662 19.7933C24.6144 19.5871 24.4006 19.4349 24.156 19.359L23.012 18.989C22.7746 18.9102 22.5587 18.7773 22.3817 18.6005C22.2046 18.4238 22.0712 18.2083 21.992 17.971L21.612 16.808C21.5301 16.5706 21.3757 16.3649 21.1707 16.2199C20.9657 16.0749 20.7204 15.9978 20.4693 15.9996C20.2182 16.0014 19.9739 16.0819 19.771 16.2298C19.568 16.3776 19.4166 16.5855 19.338 16.824L18.964 17.97C18.8874 18.2042 18.758 18.4177 18.5858 18.594C18.4137 18.7703 18.2033 18.9047 17.971 18.987L16.805 19.365C16.5696 19.4486 16.3657 19.6029 16.2212 19.8067C16.0768 20.0106 15.9988 20.2541 15.998 20.504C15.9983 20.7561 16.0779 21.0017 16.2256 21.2059C16.3734 21.4102 16.5817 21.5628 16.821 21.642L17.965 22.014C18.2031 22.093 18.4194 22.2267 18.5965 22.4043C18.7737 22.582 18.9067 22.7986 18.985 23.037L19.364 24.2C19.4467 24.4349 19.6005 24.6373 19.804 24.781Z" fill="#80E8FF"/>
</svg>
